<svg width="98" height="21" viewBox="0 0 98 21" fill="none" xmlns="http://www.w3.org/2000/svg">
<g id="BP Logo">
<g id="prime">
<path fill-rule="evenodd" clip-rule="evenodd" d="M59.6441 4.03663C59.5945 4.09798 59.5615 4.19001 59.5615 4.31271V13.5305C59.5615 13.6686 59.578 13.7606 59.6441 13.8066C59.6936 13.8526 59.7927 13.8833 59.9249 13.8833H61.3455C61.4941 13.8833 61.5932 13.8526 61.6428 13.8066C61.6923 13.7453 61.7254 13.6532 61.7254 13.5305V10.5091C61.9897 10.7084 62.3035 10.8772 62.6669 10.9999C63.0303 11.1226 63.4103 11.1839 63.8232 11.1839C64.4344 11.1839 64.9795 11.0305 65.4586 10.7238C65.9211 10.417 66.301 9.97224 66.5818 9.40475C66.8626 8.82193 66.9948 8.16242 66.9948 7.39554C66.9948 6.2759 66.714 5.40167 66.1523 4.74216C65.5907 4.08264 64.8309 3.76056 63.8728 3.76056C63.4433 3.76056 63.0138 3.83724 62.5843 3.99062C62.1714 4.14399 61.808 4.35872 61.5106 4.61945L61.4115 4.26669C61.362 4.06731 61.2298 3.95994 60.9986 3.95994H59.9249C59.7927 3.95994 59.7101 3.99062 59.6441 4.03663ZM61.7253 5.64706C62.1713 5.40166 62.6668 5.27896 63.1789 5.27896C63.7571 5.27896 64.1535 5.46301 64.4178 5.80043C64.6656 6.15319 64.7977 6.70534 64.7977 7.47222C64.7977 8.22376 64.6656 8.77591 64.4013 9.12867C64.137 9.48143 63.7405 9.65014 63.1789 9.65014C62.6503 9.65014 62.1548 9.52744 61.7253 9.28204V5.64706Z" fill="#00A8E1"/>
<path d="M70.5132 5.01818C70.9096 4.61941 71.2895 4.32799 71.6364 4.15928C71.9833 3.99057 72.3632 3.89854 72.7597 3.89854H72.9744C73.1066 3.89854 73.2057 3.92922 73.2717 3.97523C73.3378 4.02124 73.3543 4.11327 73.3543 4.25131V5.41696C73.3543 5.53966 73.3213 5.63168 73.2717 5.67769C73.2222 5.73904 73.1231 5.75438 72.9744 5.75438C72.9083 5.75438 72.8092 5.75438 72.7101 5.73904C72.5945 5.72371 72.4623 5.72371 72.2972 5.72371C72.0659 5.72371 71.7851 5.75438 71.4712 5.81573C71.1409 5.87708 70.86 5.95377 70.6453 6.04579V10.6931C70.6453 10.8158 70.6123 10.9078 70.5627 10.9538C70.5132 11.0151 70.414 11.0305 70.2654 11.0305H68.8448C68.7126 11.0305 68.6135 10.9998 68.564 10.9538C68.4979 10.8924 68.4814 10.8158 68.4814 10.6931V4.31266C68.4814 4.18996 68.5144 4.09793 68.564 4.03658C68.6301 3.99057 68.7126 3.95989 68.8448 3.95989H69.9185C70.1498 3.95989 70.2819 4.06726 70.3315 4.26664L70.5132 5.01818Z" fill="#00A8E1"/>
<path fill-rule="evenodd" clip-rule="evenodd" d="M74.5933 2.59558C74.8245 2.79497 75.1218 2.887 75.5018 2.887C75.8817 2.887 76.179 2.77963 76.4103 2.59558C76.6415 2.41153 76.7572 2.1508 76.7572 1.81337C76.7572 1.49128 76.6415 1.23055 76.4103 1.03116C76.179 0.831771 75.8817 0.739746 75.5018 0.739746C75.1218 0.739746 74.8245 0.831771 74.5933 1.03116C74.362 1.21521 74.2464 1.47595 74.2464 1.81337C74.2464 2.13546 74.362 2.3962 74.5933 2.59558ZM74.494 4.03666C74.4444 4.09801 74.4114 4.19004 74.4114 4.31274V10.6778C74.4114 10.8005 74.4279 10.8772 74.494 10.9385C74.5436 10.9845 74.6427 11.0152 74.7748 11.0152H76.1954C76.3441 11.0152 76.4432 10.9999 76.4927 10.9385C76.5423 10.8925 76.5753 10.8005 76.5753 10.6778V4.31274C76.5753 4.1747 76.5423 4.08268 76.4927 4.03666C76.4267 3.99065 76.3276 3.95998 76.1954 3.95998H74.7748C74.6427 3.95998 74.5601 3.99065 74.494 4.03666Z" fill="#00A8E1"/>
<path d="M80.4076 4.65013C80.9362 4.32804 81.4152 4.09798 81.8282 3.95994C82.2577 3.82191 82.6872 3.76056 83.1332 3.76056C84.0252 3.76056 84.6529 4.05197 85.0163 4.65013C85.5283 4.34338 85.9909 4.11332 86.4369 3.97528C86.8829 3.83724 87.3454 3.76056 87.8244 3.76056C88.5182 3.76056 89.0633 3.94461 89.4432 4.29737C89.8232 4.65013 90.0214 5.15627 90.0214 5.80044V10.6778C90.0214 10.8005 89.9883 10.8925 89.9388 10.9385C89.8892 10.9999 89.7901 11.0152 89.6415 11.0152H88.2209C88.0887 11.0152 87.9896 10.9845 87.94 10.9385C87.874 10.8772 87.8575 10.8005 87.8575 10.6778V6.24523C87.8575 5.61639 87.5601 5.30964 86.9489 5.30964C86.4203 5.30964 85.8752 5.43234 85.3301 5.6624V10.6778C85.3301 10.8005 85.2971 10.8925 85.2475 10.9385C85.198 10.9999 85.0989 11.0152 84.9502 11.0152H83.5296C83.3975 11.0152 83.2984 10.9845 83.2488 10.9385C83.1827 10.8772 83.1662 10.8005 83.1662 10.6778V6.24523C83.1662 5.61639 82.8689 5.30964 82.2577 5.30964C81.6961 5.30964 81.1509 5.43234 80.6224 5.67774V10.6778C80.6224 10.8005 80.5893 10.8925 80.5398 10.9385C80.4902 10.9999 80.3911 11.0152 80.2424 11.0152H78.8218C78.6897 11.0152 78.5906 10.9845 78.541 10.9385C78.475 10.8772 78.4584 10.8005 78.4584 10.6778V4.31271C78.4584 4.19001 78.4915 4.09798 78.541 4.03663C78.6071 3.99062 78.6897 3.95994 78.8218 3.95994H79.8955C80.1268 3.95994 80.259 4.06731 80.3085 4.26669L80.4076 4.65013Z" fill="#00A8E1"/>
<path fill-rule="evenodd" clip-rule="evenodd" d="M93.2591 7.99368C93.6721 8.10105 94.1676 8.14706 94.7292 8.14706C95.8195 8.14706 96.6454 7.96301 97.1575 7.59491C97.7191 7.24215 97.9999 6.72067 97.9999 6.03048C97.9999 5.3403 97.7521 4.78815 97.2235 4.37403C96.7115 3.95992 95.9846 3.7452 95.0596 3.7452C93.8703 3.7452 92.9287 4.09796 92.2515 4.77281C91.5742 5.463 91.2438 6.39858 91.2438 7.59491C91.2438 8.77589 91.5742 9.66547 92.2349 10.2943C92.8957 10.9231 93.8538 11.2299 95.0761 11.2299C95.9021 11.2299 96.6619 11.1072 97.3887 10.8465C97.5209 10.8004 97.6035 10.7544 97.653 10.6931C97.7026 10.6317 97.7191 10.5397 97.7191 10.3863V9.75749C97.7191 9.54277 97.6365 9.43541 97.4713 9.43541H97.3887C97.3722 9.43541 97.3392 9.43541 97.3061 9.45074C96.8436 9.55811 96.4802 9.6348 96.2159 9.66547C95.9516 9.69615 95.6873 9.71148 95.4065 9.71148C94.7127 9.71148 94.2006 9.57345 93.8538 9.31271C93.5234 9.05197 93.3252 8.60718 93.2591 7.99368ZM93.2756 6.78212C93.4242 5.69316 93.9693 5.15635 94.9274 5.15635C95.6708 5.15635 96.0507 5.44776 96.0507 6.01525C96.0507 6.30666 95.9351 6.53672 95.7038 6.67476C95.4725 6.8128 95.1091 6.88949 94.5971 6.88949C94.118 6.88949 93.672 6.85881 93.2756 6.78212Z" fill="#00A8E1"/>
</g>
<g id="business">
<path d="M39.7723 16.1683C36.2208 17.5487 32.3555 18.2082 28.8371 18.2082C23.6337 18.2082 18.5956 16.9045 14.5155 14.7266C14.1521 14.5425 13.8878 14.8646 14.1852 15.11C17.9679 18.2389 22.9565 20.11 28.5067 20.11C32.4711 20.11 37.0633 18.9751 40.2348 16.8278C40.7469 16.4904 40.3009 15.9536 39.7723 16.1683Z" fill="white"/>
<path d="M37.6415 14.9107C37.3607 15.0948 37.4102 15.3402 37.7241 15.3095C38.7482 15.2021 41.0113 14.9414 41.4077 15.4169C41.8042 15.8923 40.9617 17.8402 40.5818 18.7144C40.4662 18.9752 40.7139 19.0825 40.9782 18.8831C42.6631 17.5794 43.1091 14.8647 42.7622 14.4659C42.3988 14.0825 39.442 13.7451 37.6415 14.9107Z" fill="white"/>
<path fill-rule="evenodd" clip-rule="evenodd" d="M43.0759 6.0305C43.0759 6.72069 42.7951 7.24217 42.2335 7.59493C41.6719 7.94769 40.846 8.13174 39.7888 8.1164C39.2271 8.1164 38.7316 8.07039 38.3186 7.96303C38.3682 8.57653 38.5664 9.02131 38.9133 9.28205C39.2602 9.54279 39.7722 9.68083 40.466 9.68083C40.7468 9.68083 41.0111 9.66549 41.2754 9.63482C41.5397 9.60414 41.9031 9.52745 42.3657 9.42009C42.3725 9.42009 42.3822 9.41746 42.3935 9.41438C42.4095 9.41002 42.4289 9.40475 42.4482 9.40475H42.5143C42.6795 9.40475 42.7621 9.51211 42.7621 9.72684V10.3557C42.7621 10.4937 42.7456 10.6011 42.696 10.6624C42.6465 10.7238 42.5639 10.7698 42.4317 10.8158C41.7214 11.0765 40.9451 11.1992 40.1357 11.1992C38.9133 11.1992 37.9717 10.8925 37.311 10.2637C36.6503 9.63482 36.3199 8.74524 36.3199 7.57959C36.3199 6.38327 36.6503 5.44768 37.3275 4.77283C38.0048 4.09798 38.9298 3.76056 40.1357 3.76056C41.0607 3.76056 41.7875 3.95994 42.2996 4.37405C42.8117 4.78817 43.0759 5.34032 43.0759 6.0305ZM39.9705 5.15633C39.0124 5.15633 38.4673 5.69314 38.3187 6.7821C38.7151 6.84345 39.1611 6.88946 39.6236 6.9048C40.1357 6.9048 40.4991 6.82811 40.7304 6.69008C40.9616 6.5367 41.0773 6.32198 41.0773 6.03056C41.0773 5.44774 40.7138 5.15633 39.9705 5.15633Z" fill="white"/>
<path d="M15.6059 3.95998H14.2019C14.0697 3.95998 13.9871 3.99065 13.921 4.03666C13.855 4.08268 13.8385 4.1747 13.8385 4.31274V9.23607C13.3429 9.52749 12.8473 9.68086 12.3353 9.68086C11.6415 9.68086 11.3111 9.31276 11.3111 8.56122V4.31274C11.3111 4.19004 11.2781 4.09801 11.2285 4.03666C11.179 3.99065 11.0799 3.95998 10.9477 3.95998H9.54364C9.4115 3.95998 9.3289 3.99065 9.26283 4.03666C9.19675 4.08268 9.18024 4.1747 9.18024 4.31274V9.12871C9.18024 9.78822 9.36194 10.2944 9.74187 10.6625C10.1218 11.0306 10.6339 11.2146 11.2946 11.2146C12.2527 11.2146 13.1612 10.8925 14.0367 10.2637L14.1688 10.7085C14.2019 10.8158 14.2514 10.8925 14.301 10.9385C14.367 10.9845 14.4496 10.9999 14.5653 10.9999H15.6224C15.7546 10.9999 15.8537 10.9692 15.9033 10.9232C15.9528 10.8772 15.9859 10.7852 15.9859 10.6625V4.31274C15.9859 4.19004 15.9528 4.09801 15.9033 4.03666C15.8372 3.99065 15.7381 3.95998 15.6059 3.95998Z" fill="white"/>
<path fill-rule="evenodd" clip-rule="evenodd" d="M3.46475 3.95971C3.86119 3.82168 4.2246 3.76033 4.60452 3.76033C5.56259 3.76033 6.30593 4.08241 6.88407 4.72659C7.42918 5.3861 7.71 6.26034 7.71 7.37997C7.71 8.13151 7.57785 8.80636 7.29704 9.37385C7.01622 9.94134 6.6363 10.3861 6.17378 10.6929C5.69474 10.9996 5.16615 11.153 4.55497 11.153C4.09245 11.153 3.67949 11.0916 3.28304 10.9383C2.8866 10.8002 2.55623 10.5855 2.29193 10.3248L2.19282 10.7082C2.14327 10.9076 2.01112 11.015 1.77986 11.015H0.68964C0.557492 11.015 0.474899 10.9996 0.408825 10.9383C0.35927 10.8769 0.326233 10.8002 0.326233 10.6775V1.15295C0.326233 1.03025 0.35927 0.938227 0.408825 0.876877C0.474899 0.830865 0.557492 0.80019 0.68964 0.80019H2.09371C2.22586 0.80019 2.32497 0.830865 2.37453 0.876877C2.42408 0.938227 2.45712 1.03025 2.45712 1.15295V4.51186C2.75445 4.2818 3.08482 4.09775 3.46475 3.95971ZM3.92716 9.64975C4.47227 9.64975 4.86871 9.48104 5.13301 9.12827C5.38079 8.77551 5.51294 8.22336 5.52945 7.47183C5.52945 6.70495 5.39731 6.1528 5.14953 5.80004C4.88523 5.44728 4.48879 5.27856 3.92716 5.27856C3.41509 5.27856 2.93605 5.40126 2.49005 5.64666V9.28165C2.91953 9.52705 3.39857 9.64975 3.92716 9.64975Z" fill="white"/>
<path d="M21.2552 6.98141L20.1319 6.55196C19.7685 6.41392 19.5373 6.29122 19.4216 6.1992C19.306 6.10717 19.2564 5.96913 19.2564 5.81576C19.2564 5.61637 19.3556 5.463 19.5373 5.37097C19.719 5.27895 20.0163 5.23293 20.4127 5.23293C20.9578 5.23293 21.4204 5.29428 21.8333 5.40165C22.0481 5.463 22.1802 5.47833 22.2463 5.47833C22.4115 5.47833 22.4941 5.37097 22.4941 5.15625V4.54275C22.4941 4.38937 22.4776 4.29735 22.428 4.236C22.3784 4.17465 22.2958 4.12863 22.1637 4.08262C21.5525 3.8679 20.9083 3.7452 20.2145 3.7452C19.3225 3.7452 18.6122 3.92925 18.0671 4.31268C17.5385 4.69612 17.2577 5.20226 17.2577 5.8311C17.2577 6.3219 17.3899 6.73601 17.6542 7.0581C17.9184 7.38018 18.3479 7.65626 18.9426 7.87098L20.0824 8.30043C20.4293 8.42313 20.6605 8.5305 20.7596 8.63786C20.8753 8.74522 20.9248 8.88326 20.9248 9.06731C20.9248 9.52743 20.5779 9.75749 19.8676 9.75749C19.5207 9.75749 19.1408 9.72682 18.7444 9.68081C18.3479 9.61946 17.9845 9.54277 17.6707 9.45074C17.5881 9.42007 17.522 9.40473 17.4724 9.40473C17.3073 9.40473 17.2247 9.5121 17.2247 9.72682V10.3403C17.2247 10.4784 17.2412 10.5704 17.2907 10.6317C17.3403 10.6931 17.4229 10.7544 17.555 10.8004C18.2488 11.0919 19.0417 11.2299 19.9007 11.2299C20.8092 11.2299 21.536 11.0152 22.0811 10.6011C22.6427 10.1869 22.907 9.63479 22.907 8.94461C22.907 8.45381 22.7749 8.05503 22.5106 7.76362C22.2958 7.47221 21.8664 7.21147 21.2552 6.98141Z" fill="white"/>
<path d="M55.0355 6.98141L53.9122 6.55196C53.5488 6.41392 53.3175 6.29122 53.2019 6.1992C53.0863 6.10717 53.0367 5.96913 53.0367 5.81576C53.0367 5.61637 53.1358 5.463 53.3175 5.37097C53.4992 5.27895 53.7966 5.23293 54.193 5.23293C54.7381 5.23293 55.2006 5.29428 55.6136 5.40165C55.8283 5.463 55.9605 5.47833 56.0266 5.47833C56.1918 5.47833 56.2743 5.37097 56.2743 5.15625V4.54275C56.2743 4.38937 56.2578 4.29735 56.2083 4.236C56.1587 4.17465 56.0761 4.12863 55.944 4.08262C55.3328 3.8679 54.6886 3.7452 53.9948 3.7452C53.1028 3.7452 52.3925 3.92925 51.8474 4.31268C51.3188 4.69612 51.038 5.20226 51.038 5.8311C51.038 6.3219 51.1701 6.73601 51.4344 7.0581C51.6987 7.38018 52.1282 7.65626 52.7229 7.87098L53.8626 8.30043C54.2095 8.42313 54.4408 8.5305 54.5399 8.63786C54.6555 8.74522 54.7051 8.88326 54.7051 9.06731C54.7051 9.52743 54.3582 9.75749 53.6479 9.75749C53.301 9.75749 52.9211 9.72682 52.5246 9.68081C52.1282 9.61946 51.7648 9.54277 51.4509 9.45074C51.3684 9.42007 51.3023 9.40473 51.2527 9.40473C51.0875 9.40473 51.0049 9.5121 51.0049 9.72682V10.3403C51.0049 10.4784 51.0215 10.5704 51.071 10.6317C51.1041 10.6931 51.2032 10.7544 51.3353 10.8004C52.0291 11.0919 52.822 11.2299 53.6809 11.2299C54.5895 11.2299 55.3163 11.0152 55.8614 10.6011C56.423 10.1869 56.6873 9.63479 56.6873 8.94461C56.6873 8.45381 56.5552 8.05503 56.2909 7.76362C56.0761 7.47221 55.6466 7.21147 55.0355 6.98141Z" fill="white"/>
<path d="M48.0648 6.98141L46.9415 6.55196C46.5781 6.41392 46.3468 6.29122 46.2312 6.1992C46.1156 6.10717 46.066 5.96913 46.066 5.81576C46.066 5.61637 46.1651 5.463 46.3468 5.37097C46.5285 5.27895 46.8259 5.23293 47.2223 5.23293C47.7674 5.23293 48.2299 5.29428 48.6429 5.40165C48.8576 5.463 48.9898 5.47833 49.0559 5.47833C49.221 5.47833 49.3036 5.37097 49.3036 5.15625V4.54275C49.3036 4.38937 49.2871 4.29735 49.2376 4.236C49.188 4.17465 49.1054 4.12863 48.9733 4.08262C48.3621 3.8679 47.7179 3.7452 47.0241 3.7452C46.1321 3.7452 45.4218 3.92925 44.8767 4.31268C44.3481 4.69612 44.0673 5.20226 44.0673 5.8311C44.0673 6.3219 44.1994 6.73601 44.4637 7.0581C44.728 7.38018 45.1575 7.65626 45.7522 7.87098L46.8919 8.30043C47.2388 8.42313 47.4701 8.5305 47.5692 8.63786C47.6848 8.74522 47.7344 8.88326 47.7344 9.06731C47.7344 9.52743 47.3875 9.75749 46.6772 9.75749C46.3303 9.75749 45.9504 9.72682 45.5539 9.68081C45.1575 9.61946 44.7941 9.54277 44.4802 9.45074C44.3976 9.42007 44.3316 9.40473 44.282 9.40473C44.1168 9.40473 44.0342 9.5121 44.0342 9.72682V10.3403C44.0342 10.4784 44.0508 10.5704 44.1003 10.6317C44.1499 10.6931 44.2325 10.7544 44.3646 10.8004C45.0584 11.0919 45.8513 11.2299 46.7102 11.2299C47.6188 11.2299 48.3456 11.0152 48.8907 10.6011C49.4523 10.1869 49.7166 9.63479 49.7166 8.94461C49.7166 8.45381 49.5845 8.05503 49.3202 7.76362C49.1054 7.47221 48.6759 7.21147 48.0648 6.98141Z" fill="white"/>
<path d="M32.8512 3.76056C31.8436 3.76056 30.902 4.08264 30.0266 4.72682L29.8944 4.26669C29.8448 4.06731 29.7127 3.95994 29.4814 3.95994H28.4243C28.2921 3.95994 28.2095 3.99062 28.1434 4.03663C28.0774 4.08264 28.0609 4.17467 28.0609 4.31271V10.6778C28.0609 10.8005 28.0939 10.8772 28.1434 10.9385C28.193 10.9999 28.2921 11.0152 28.4243 11.0152H29.8283C29.9605 11.0152 30.0596 10.9845 30.1091 10.9385C30.1587 10.8772 30.1917 10.8005 30.1917 10.6778V5.76977C30.7203 5.46302 31.2489 5.2943 31.794 5.2943C32.1574 5.2943 32.4217 5.38633 32.6034 5.55504C32.7851 5.72375 32.8677 5.99983 32.8677 6.38327V10.6624C32.8677 10.7851 32.9008 10.8618 32.9503 10.9232C33.0164 10.9845 33.099 10.9999 33.2311 10.9999H34.6352C34.7674 10.9999 34.8665 10.9692 34.916 10.9232C34.9656 10.8618 34.9986 10.7851 34.9986 10.6624V5.80044C34.9986 5.14093 34.8169 4.65013 34.437 4.28203C34.0901 3.94461 33.5615 3.76056 32.8512 3.76056Z" fill="white"/>
<path d="M25.8474 3.95998H24.4433C24.3112 3.95998 24.2286 3.99065 24.1625 4.03666C24.0964 4.08268 24.0799 4.1747 24.0799 4.31274V10.6778C24.0799 10.8005 24.1129 10.8772 24.1625 10.9385C24.2286 10.9999 24.3112 11.0152 24.4433 11.0152H25.8474C25.9795 11.0152 26.0786 10.9845 26.1282 10.9385C26.1777 10.8772 26.2108 10.8005 26.2108 10.6778V4.31274C26.2108 4.19004 26.1777 4.09801 26.1282 4.03666C26.0786 3.99065 25.996 3.95998 25.8474 3.95998Z" fill="white"/>
<path d="M25.1535 0.723633C24.7735 0.723633 24.4762 0.815658 24.2615 1.01505C24.0302 1.21443 23.9311 1.47517 23.9311 1.79726C23.9311 2.11934 24.0467 2.39542 24.2615 2.57947C24.4927 2.77886 24.7901 2.87088 25.1535 2.87088C25.5334 2.87088 25.8307 2.77886 26.0455 2.57947C26.2767 2.38008 26.3758 2.11934 26.3758 1.79726C26.3758 1.47517 26.2602 1.1991 26.0455 1.01505C25.8142 0.815658 25.5169 0.723633 25.1535 0.723633Z" fill="white"/>
</g>
</g>
</svg>
