<svg width="19" height="23" viewBox="0 0 19 23" fill="none" xmlns="http://www.w3.org/2000/svg">
<path d="M18.575 14.5924L10.175 22.3574C10.075 22.4495 9.96667 22.5147 9.85 22.5528C9.73333 22.5915 9.60833 22.6108 9.475 22.6108C9.34167 22.6108 9.21667 22.5915 9.1 22.5528C8.98333 22.5147 8.875 22.4495 8.775 22.3574L0.35 14.5924C0.116667 14.3774 0 14.1085 0 13.786C0 13.4634 0.125 13.1869 0.375 12.9565C0.625 12.726 0.916667 12.6108 1.25 12.6108C1.58333 12.6108 1.875 12.726 2.125 12.9565L9.475 19.7307L16.825 12.9565C17.0583 12.7414 17.3457 12.6339 17.687 12.6339C18.029 12.6339 18.325 12.7491 18.575 12.9795C18.825 13.2099 18.95 13.4787 18.95 13.786C18.95 14.0932 18.825 14.362 18.575 14.5924Z" fill="black"/>
<path d="M0.375195 8.01843L8.7752 0.253456C8.8752 0.16129 8.98353 0.0961595 9.10019 0.0580643C9.21686 0.0193546 9.34186 0 9.47519 0C9.60853 0 9.73353 0.0193546 9.85019 0.0580643C9.96686 0.0961595 10.0752 0.16129 10.1752 0.253456L18.6002 8.01843C18.8335 8.23349 18.9502 8.5023 18.9502 8.82489C18.9502 9.14747 18.8252 9.42396 18.5752 9.65438C18.3252 9.88479 18.0335 10 17.7002 10C17.3669 10 17.0752 9.88479 16.8252 9.65438L9.47519 2.88018L2.12519 9.65438C1.89186 9.86943 1.60453 9.97696 1.2632 9.97696C0.921195 9.97696 0.625195 9.86175 0.375195 9.63134C0.125195 9.40092 0.00019455 9.1321 0.00019455 8.82489C0.00019455 8.51767 0.125195 8.24885 0.375195 8.01843Z" fill="black"/>
</svg>
