<?xml version="1.0" encoding="UTF-8"?>
<svg width="189px" height="78px" viewBox="0 0 189 78" version="1.1" xmlns="http://www.w3.org/2000/svg" xmlns:xlink="http://www.w3.org/1999/xlink">
    <title>Group</title>
    <defs>
        <rect id="path-1" x="0" y="0" width="189" height="78"></rect>
    </defs>
    <g id="Page-1" stroke="none" stroke-width="1" fill="none" fill-rule="evenodd">
        <g id="3-2" transform="translate(-756.000000, -535.000000)">
            <g id="Group" transform="translate(756.000000, 535.000000)">
                <mask id="mask-2" fill="white">
                    <use xlink:href="#path-1"></use>
                </mask>
                <g id="Rectangle"></g>
                <g id="Group-156" mask="url(#mask-2)">
                    <g transform="translate(7.000000, 6.000000)">
                        <polygon id="Fill-1" fill="#0D2C49" points="64 59 86 59 86 29 64 29"></polygon>
                        <polygon id="Fill-2" fill="#0D2C49" points="69 50 83 50 83 20 69 20"></polygon>
                        <polygon id="Fill-3" fill="#5B89A3" points="99 23 112 23 112 0 99 0"></polygon>
                        <polygon id="Fill-4" fill="#0D2C49" points="112 0 112 23 120 23 120 1.83401139"></polygon>
                        <polygon id="Fill-5" fill="#5B89A3" points="96 61 114 61 114 9 96 9"></polygon>
                        <polygon id="Fill-6" fill="#0D2C49" points="97 13 113 13 113 11 97 11"></polygon>
                        <polygon id="Fill-7" fill="#0D2C49" points="97 17 113 17 113 15 97 15"></polygon>
                        <polygon id="Fill-8" fill="#0D2C49" points="97 21 113 21 113 19 97 19"></polygon>
                        <polygon id="Fill-9" fill="#0D2C49" points="97 25 113 25 113 23 97 23"></polygon>
                        <polygon id="Fill-10" fill="#0D2C49" points="97 29 113 29 113 27 97 27"></polygon>
                        <polygon id="Fill-11" fill="#0D2C49" points="97 33 113 33 113 31 97 31"></polygon>
                        <polygon id="Fill-12" fill="#0D2C49" points="97 37 113 37 113 35 97 35"></polygon>
                        <polygon id="Fill-13" fill="#0D2C49" points="97 41 113 41 113 39 97 39"></polygon>
                        <polygon id="Fill-14" fill="#0D2C49" points="97 45 113 45 113 43 97 43"></polygon>
                        <polygon id="Fill-15" fill="#0D2C49" points="97 50 113 50 113 48 97 48"></polygon>
                        <polygon id="Fill-16" fill="#0D2C49" points="97 53 113 53 113 51 97 51"></polygon>
                        <polygon id="Fill-17" fill="#0D2C49" points="97 58 113 58 113 56 97 56"></polygon>
                        <polygon id="Fill-18" fill="#0D2C49" points="97 61 113 61 113 60 97 60"></polygon>
                        <polygon id="Fill-19" fill="#0D2C49" points="124 61 114 61 114 9 124 11.0732149"></polygon>
                        <polygon id="Fill-20" fill="#0D2C49" points="99 2 111 2 111 1 99 1"></polygon>
                        <polygon id="Fill-21" fill="#0D2C49" points="99 4 111 4 111 3 99 3"></polygon>
                        <polygon id="Fill-22" fill="#0D2C49" points="99 6 111 6 111 5 99 5"></polygon>
                        <polygon id="Fill-23" fill="#0D2C49" points="99 8 111 8 111 7 99 7"></polygon>
                        <polygon id="Fill-24" fill="#78A9D1" points="22 75 35 75 35 28 22 28"></polygon>
                        <polygon id="Fill-25" fill="#0D2C49" points="23 31 34 31 34 29 23 29"></polygon>
                        <polygon id="Fill-26" fill="#0D2C49" points="23 35 34 35 34 33 23 33"></polygon>
                        <polygon id="Fill-27" fill="#0D2C49" points="23 39 34 39 34 37 23 37"></polygon>
                        <polygon id="Fill-28" fill="#0D2C49" points="23 42 34 42 34 40 23 40"></polygon>
                        <polygon id="Fill-29" fill="#0D2C49" points="23 46 34 46 34 44 23 44"></polygon>
                        <polygon id="Fill-30" fill="#0D2C49" points="23 50 34 50 34 48 23 48"></polygon>
                        <polygon id="Fill-31" fill="#0D2C49" points="23 53 34 53 34 51 23 51"></polygon>
                        <polygon id="Fill-32" fill="#0D2C49" points="23 57 34 57 34 55 23 55"></polygon>
                        <polygon id="Fill-33" fill="#0D2C49" points="23 61 34 61 34 59 23 59"></polygon>
                        <polygon id="Fill-34" fill="#0D2C49" points="23 64 34 64 34 62 23 62"></polygon>
                        <polygon id="Fill-35" fill="#0D2C49" points="23 68 34 68 34 66 23 66"></polygon>
                        <polygon id="Fill-36" fill="#0D2C49" points="23 72 34 72 34 70 23 70"></polygon>
                        <polygon id="Fill-38" fill="#0D2C49" points="44 75 35 75 35 28 44 29.8649299"></polygon>
                        <polygon id="Fill-39" fill="#98C2E5" points="45 27 52 27 52 21 45 21"></polygon>
                        <polygon id="Fill-40" fill="#0D2C49" points="57 22.3228346 52 21 52 27.0813648 57 28"></polygon>
                        <polygon id="Fill-41" fill="#98C2E5" points="43 35 53 35 53 26 43 26"></polygon>
                        <polygon id="Fill-42" fill="#0D2C49" points="44 32 53 32 53 31 44 31"></polygon>
                        <polygon id="Fill-43" fill="#0D2C49" points="44 30 53 30 53 29 44 29"></polygon>
                        <polygon id="Fill-44" fill="#0D2C49" points="44 28 53 28 53 27 44 27"></polygon>
                        <polygon id="Fill-45" fill="#0D2C49" points="59 27.402834 53 26 53 34.1437247 59 35"></polygon>
                        <polygon id="Fill-46" fill="#98C2E5" points="42 74 54 74 54 33 42 33"></polygon>
                        <polygon id="Fill-47" fill="#0D2C49" points="50 74 51 74 51 34 50 34"></polygon>
                        <polygon id="Fill-48" fill="#0D2C49" points="47 74 48 74 48 34 47 34"></polygon>
                        <polygon id="Fill-49" fill="#0D2C49" points="43 74 44 74 44 34 43 34"></polygon>
                        <polygon id="Fill-50" fill="#0D2C49" points="61 34.2765568 54 33 54 74 61 74"></polygon>
                        <polygon id="Fill-51" fill="#78A9D1" points="85 76 99 76 99 24 85 24"></polygon>
                        <polygon id="Fill-52" fill="#0D2C49" points="86 27 99 27 99 25 86 25"></polygon>
                        <polygon id="Fill-53" fill="#0D2C49" points="86 31 99 31 99 29 86 29"></polygon>
                        <polygon id="Fill-54" fill="#0D2C49" points="86 35 99 35 99 33 86 33"></polygon>
                        <polygon id="Fill-55" fill="#0D2C49" points="86 39 99 39 99 37 86 37"></polygon>
                        <polygon id="Fill-56" fill="#0D2C49" points="86 43 99 43 99 41 86 41"></polygon>
                        <polygon id="Fill-57" fill="#0D2C49" points="86 48 99 48 99 46 86 46"></polygon>
                        <polygon id="Fill-58" fill="#0D2C49" points="86 51 99 51 99 49 86 49"></polygon>
                        <polygon id="Fill-59" fill="#0D2C49" points="86 56 99 56 99 54 86 54"></polygon>
                        <polygon id="Fill-60" fill="#0D2C49" points="86 60 99 60 99 58 86 58"></polygon>
                        <polygon id="Fill-61" fill="#0D2C49" points="86 64 99 64 99 62 86 62"></polygon>
                        <polygon id="Fill-62" fill="#0D2C49" points="86 68 99 68 99 66 86 66"></polygon>
                        <polygon id="Fill-63" fill="#0D2C49" points="86 72 99 72 99 70 86 70"></polygon>
                        <polygon id="Fill-65" fill="#0D2C49" points="109 76 99 76 99 24 109 26.0739591"></polygon>
                        <polygon id="Fill-66" fill="#5B89A3" points="123 74 137 74 137 22 123 22"></polygon>
                        <polygon id="Fill-67" fill="#0D2C49" points="134 74 136 74 136 23 134 23"></polygon>
                        <polygon id="Fill-68" fill="#0D2C49" points="130 74 132 74 132 23 130 23"></polygon>
                        <polygon id="Fill-69" fill="#0D2C49" points="127 74 129 74 129 23 127 23"></polygon>
                        <polygon id="Fill-70" fill="#0D2C49" points="123 74 125 74 125 23 123 23"></polygon>
                        <polygon id="Fill-71" fill="#0D2C49" points="147 74 137 74 137 22 147 24.0739666"></polygon>
                        <polygon id="Fill-72" fill="#5B89A3" points="0 76 17 76 17 52 0 52"></polygon>
                        <polygon id="Fill-75" fill="#0D2C49" points="1 69 16 69 16 68 1 68"></polygon>
                        <polygon id="Fill-76" fill="#0D2C49" points="1 66 16 66 16 65 1 65"></polygon>
                        <polygon id="Fill-77" fill="#0D2C49" points="1 63 16 63 16 62 1 62"></polygon>
                        <polygon id="Fill-78" fill="#0D2C49" points="1 60 16 60 16 59 1 59"></polygon>
                        <polygon id="Fill-79" fill="#0D2C49" points="1 57 16 57 16 56 1 56"></polygon>
                        <polygon id="Fill-80" fill="#0D2C49" points="1 54 16 54 16 53 1 53"></polygon>
                        <polygon id="Fill-81" fill="#0D2C49" points="27 76 16 76 16 52 27 54.1802017"></polygon>
                        <polygon id="Fill-82" fill="#5B89A3" points="58 78 73 78 73 35 58 35"></polygon>
                        <polygon id="Fill-83" fill="#0D2C49" points="59 38 72 38 72 36 59 36"></polygon>
                        <polygon id="Fill-84" fill="#0D2C49" points="59 42 72 42 72 40 59 40"></polygon>
                        <polygon id="Fill-85" fill="#0D2C49" points="59 45 72 45 72 43 59 43"></polygon>
                        <polygon id="Fill-86" fill="#0D2C49" points="59 48 72 48 72 46 59 46"></polygon>
                        <polygon id="Fill-87" fill="#0D2C49" points="59 52 72 52 72 50 59 50"></polygon>
                        <polygon id="Fill-88" fill="#0D2C49" points="59 55 72 55 72 53 59 53"></polygon>
                        <polygon id="Fill-89" fill="#0D2C49" points="59 58 72 58 72 56 59 56"></polygon>
                        <polygon id="Fill-90" fill="#0D2C49" points="59 62 72 62 72 60 59 60"></polygon>
                        <polygon id="Fill-91" fill="#0D2C49" points="59 65 72 65 72 63 59 63"></polygon>
                        <polygon id="Fill-92" fill="#0D2C49" points="59 68 72 68 72 66 59 66"></polygon>
                        <polygon id="Fill-93" fill="#0D2C49" points="59 72 72 72 72 70 59 70"></polygon>
                        <polygon id="Fill-96" fill="#0D2C49" points="72 78 80 78 80 36.7151041 72 35"></polygon>
                        <polygon id="Fill-97" fill="#5B89A3" points="27 76 47 76 47 55 27 55"></polygon>
                        <polygon id="Fill-100" fill="#0D2C49" points="28 70 47 70 47 69 28 69"></polygon>
                        <polygon id="Fill-101" fill="#0D2C49" points="28 68 47 68 47 67 28 67"></polygon>
                        <polygon id="Fill-102" fill="#0D2C49" points="28 65 47 65 47 64 28 64"></polygon>
                        <polygon id="Fill-103" fill="#0D2C49" points="28 63 47 63 47 62 28 62"></polygon>
                        <polygon id="Fill-104" fill="#0D2C49" points="28 60 47 60 47 59 28 59"></polygon>
                        <polygon id="Fill-105" fill="#0D2C49" points="28 57 47 57 47 56 28 56"></polygon>
                        <polygon id="Fill-106" fill="#0D2C49" points="56 76 47 76 47 55 56 56.913927"></polygon>
                        <polygon id="Fill-107" fill="#98C2E5" points="104 75 118 75 118 38 104 38"></polygon>
                        <polygon id="Fill-108" fill="#0D2C49" points="115 75 117 75 117 39 115 39"></polygon>
                        <polygon id="Fill-109" fill="#0D2C49" points="111 75 113 75 113 39 111 39"></polygon>
                        <polygon id="Fill-110" fill="#0D2C49" points="108 75 110 75 110 39 108 39"></polygon>
                        <polygon id="Fill-111" fill="#0D2C49" points="104 75 106 75 106 39 104 39"></polygon>
                        <polygon id="Fill-112" fill="#0D2C49" points="128 75 118 75 118 38 128 40.0545075"></polygon>
                        <polygon id="Fill-113" fill="#78A9D1" points="58 74 80 74 80 51 58 51"></polygon>
                        <polygon id="Fill-114" fill="#0D2C49" points="61 75 62 75 62 53 61 53"></polygon>
                        <polygon id="Fill-115" fill="#0D2C49" points="64 75 65 75 65 53 64 53"></polygon>
                        <polygon id="Fill-116" fill="#0D2C49" points="67 75 68 75 68 53 67 53"></polygon>
                        <polygon id="Fill-117" fill="#0D2C49" points="70 75 71 75 71 53 70 53"></polygon>
                        <polygon id="Fill-118" fill="#0D2C49" points="73 75 74 75 74 53 73 53"></polygon>
                        <polygon id="Fill-119" fill="#0D2C49" points="76 75 77 75 77 53 76 53"></polygon>
                        <polygon id="Fill-120" fill="#0D2C49" points="90 74 80 74 80 51 90 53.0960591"></polygon>
                        <polygon id="Fill-121" fill="#5B89A3" points="144 52 166 52 166 37 144 37"></polygon>
                        <polygon id="Fill-122" fill="#0D2C49" points="144 39 165 39 165 38 144 38"></polygon>
                        <polygon id="Fill-123" fill="#0D2C49" points="144 42 165 42 165 41 144 41"></polygon>
                        <polygon id="Fill-124" fill="#0D2C49" points="144 45 165 45 165 44 144 44"></polygon>
                        <polygon id="Fill-125" fill="#0D2C49" points="144 48 165 48 165 47 144 47"></polygon>
                        <polygon id="Fill-126" fill="#0D2C49" points="170 52 166 52 166 37 170 37.8324094"></polygon>
                        <polygon id="Fill-127" fill="#5B89A3" points="142 77 168 77 168 48 142 48"></polygon>
                        <polygon id="Fill-128" fill="#0D2C49" points="166 76 167 76 167 49 166 49"></polygon>
                        <polygon id="Fill-129" fill="#0D2C49" points="162 76 163 76 163 49 162 49"></polygon>
                        <polygon id="Fill-130" fill="#0D2C49" points="159 76 160 76 160 49 159 49"></polygon>
                        <polygon id="Fill-131" fill="#0D2C49" points="153 76 154 76 154 49 153 49"></polygon>
                        <polygon id="Fill-132" fill="#0D2C49" points="156 76 157 76 157 49 156 49"></polygon>
                        <polygon id="Fill-133" fill="#0D2C49" points="149 76 150 76 150 49 149 49"></polygon>
                        <polygon id="Fill-134" fill="#0D2C49" points="146 76 147 76 147 49 146 49"></polygon>
                        <polygon id="Fill-135" fill="#0D2C49" points="143 76 144 76 144 49 143 49"></polygon>
                        <polygon id="Fill-136" fill="#0D2C49" points="168 77 175 77 175 49.5712832 168 48"></polygon>
                        <polygon id="Fill-137" fill="#78A9D1" points="135 75 146 75 146 58 135 58"></polygon>
                        <polygon id="Fill-140" fill="#0D2C49" points="135 70 146 70 146 69 135 69"></polygon>
                        <polygon id="Fill-141" fill="#0D2C49" points="135 68 146 68 146 67 135 67"></polygon>
                        <polygon id="Fill-142" fill="#0D2C49" points="135 66 146 66 146 65 135 65"></polygon>
                        <polygon id="Fill-143" fill="#0D2C49" points="135 64 146 64 146 63 135 63"></polygon>
                        <polygon id="Fill-144" fill="#0D2C49" points="135 62 146 62 146 61 135 61"></polygon>
                        <polygon id="Fill-145" fill="#0D2C49" points="135 60 146 60 146 59 135 59"></polygon>
                        <polygon id="Fill-146" fill="#0D2C49" points="153 75 146 75 146 58 153 59.5493855"></polygon>
                        <polygon id="Fill-147" fill="#98C2E5" points="14 39 19 39 19 34 14 34"></polygon>
                        <polygon id="Fill-148" fill="#0D2C49" points="20 34.3469388 19 34 19 39 20 39"></polygon>
                        <polygon id="Fill-149" fill="#98C2E5" points="13 45 20 45 20 39 13 39"></polygon>
                        <polygon id="Fill-150" fill="#0D2C49" points="22 39.4169184 20 39 20 45 22 45"></polygon>
                        <polygon id="Fill-151" fill="#98C2E5" points="11 74 21 74 21 44 11 44"></polygon>
                        <polygon id="Fill-152" fill="#0D2C49" points="18 74 19 74 19 45 18 45"></polygon>
                        <polygon id="Fill-153" fill="#0D2C49" points="15 74 16 74 16 45 15 45"></polygon>
                        <polygon id="Fill-154" fill="#0D2C49" points="12 74 13 74 13 45 12 45"></polygon>
                        <polygon id="Fill-155" fill="#0D2C49" points="23 44.5762046 20 44 20 74 23 74"></polygon>
                    </g>
                </g>
            </g>
        </g>
    </g>
</svg>