<svg xmlns="http://www.w3.org/2000/svg" viewBox="0 0 110 110"><defs><style>.cls-1{fill:#ffa724;}.cls-2,.cls-3,.cls-4{fill:none;stroke-miterlimit:10;stroke-width:2px;}.cls-2{stroke:#000;}.cls-2,.cls-3{stroke-linecap:round;}.cls-3,.cls-4{stroke:#fff;}</style></defs><title>business-only-prices-orange</title><g id="Row_6" data-name="Row 6"><path class="cls-1" d="M100.61,42.14l-55.16-24a3.49,3.49,0,0,0-2.9,0L8,31.56a3.83,3.83,0,0,0-2.18,5L19.43,71.07a4.22,4.22,0,0,0,2.07,2.17L76.66,97.3a3.84,3.84,0,0,0,5.08-2l20.94-48.11A3.88,3.88,0,0,0,100.61,42.14Zm-67,8.29a7.76,7.76,0,1,1,3.42-7.88A7.47,7.47,0,0,1,33.63,50.43Z"/><line class="cls-2" x1="104.44" y1="34.88" x2="52.81" y2="12.38"/><line class="cls-3" x1="40.27" y1="66.3" x2="79.35" y2="50.95"/><circle class="cls-4" cx="67.64" cy="71.27" r="5.81"/><circle class="cls-4" cx="54.47" cy="43.49" r="5.81"/></g></svg>