<svg xmlns="http://www.w3.org/2000/svg" viewBox="0 0 110 110"><defs><style>.cls-1{fill:#007cb6;}.cls-2,.cls-3{fill:none;stroke-linecap:round;stroke-miterlimit:10;stroke-width:2px;}.cls-2{stroke:#000;}.cls-3{stroke:#fff;}</style></defs><title>centralize-tailspend-blue</title><g id="Row_2" data-name="Row 2"><circle class="cls-1" cx="55" cy="55" r="29.08"/><line class="cls-2" x1="8.3" y1="14.31" x2="101.7" y2="14.31"/><line class="cls-2" x1="94.22" y1="5.5" x2="101.7" y2="14.31"/><line class="cls-2" x1="94.22" y1="23.12" x2="101.7" y2="14.31"/><line class="cls-2" x1="94.22" y1="5.5" x2="101.7" y2="14.31"/><line class="cls-2" x1="101.7" y1="95.69" x2="8.3" y2="95.69"/><line class="cls-2" x1="15.78" y1="104.5" x2="8.3" y2="95.69"/><line class="cls-2" x1="15.78" y1="86.88" x2="8.3" y2="95.69"/><line class="cls-2" x1="15.78" y1="104.5" x2="8.3" y2="95.69"/><path class="cls-3" d="M48.14,63.57s0,5.07,7.12,5.07c8.81,0,8.81-12.07,0-13.88s-8.81-13.88,0-13.88A5.13,5.13,0,0,1,60.81,46"/><line class="cls-3" x1="55" y1="35.93" x2="55" y2="40.52"/><line class="cls-3" x1="55" y1="68.64" x2="55" y2="74.07"/></g></svg>