<svg id="Layer_1" data-name="Layer 1" xmlns="http://www.w3.org/2000/svg" xmlns:xlink="http://www.w3.org/1999/xlink" viewBox="0 0 25.75 25.18"><defs><style>.cls-1,.cls-2{fill:none;}.cls-1{clip-rule:evenodd;}.cls-3{clip-path:url(#clip-path);}.cls-4{clip-path:url(#clip-path-2);}.cls-5{clip-path:url(#clip-path-3);}</style><clipPath id="clip-path" transform="translate(4.33 3.35)"><path class="cls-1" d="M9.92,6.75V5.66a.21.21,0,0,0-.07-.15.28.28,0,0,0-.18-.06H8.2A.24.24,0,0,0,8,5.51.18.18,0,0,0,8,5.66V6.75A.18.18,0,0,0,8,6.9.24.24,0,0,0,8.2,7H9.67a.28.28,0,0,0,.18-.06A.21.21,0,0,0,9.92,6.75Zm1,6.07V11.73a.18.18,0,0,0-.07-.15.24.24,0,0,0-.17-.06H9.92V8.05a.22.22,0,0,0-.07-.16.28.28,0,0,0-.18-.06H7.21A.28.28,0,0,0,7,7.89.22.22,0,0,0,7,8.05V9.13A.22.22,0,0,0,7,9.29a.28.28,0,0,0,.18.06H8v2.17H7.21a.28.28,0,0,0-.18.06.21.21,0,0,0-.07.15v1.09A.21.21,0,0,0,7,13a.24.24,0,0,0,.18.07h3.45a.21.21,0,0,0,.17-.07A.18.18,0,0,0,10.9,12.82Z"/></clipPath><clipPath id="clip-path-2" transform="translate(4.33 3.35)"><rect class="cls-2" x="-576.33" y="-303.35" width="1786" height="1485"/></clipPath><clipPath id="clip-path-3" transform="translate(4.33 3.35)"><path class="cls-1" d="M8.54,15.31a6.19,6.19,0,0,0,6.3-6.07,6.19,6.19,0,0,0-6.3-6.07,6.19,6.19,0,0,0-6.3,6.07A6.19,6.19,0,0,0,8.54,15.31Zm0,1.52A7.73,7.73,0,0,1,.67,9.24,7.73,7.73,0,0,1,8.54,1.65a7.73,7.73,0,0,1,7.87,7.59A7.73,7.73,0,0,1,8.54,16.83Z"/></clipPath></defs><title>Info_Icon</title><g class="cls-3"><g class="cls-4"><rect x="6.3" y="3.8" width="13.94" height="17.59"/></g></g><g class="cls-5"><g class="cls-4"><rect width="25.75" height="25.18"/></g></g></svg>
