<svg width="88" height="88" xmlns="http://www.w3.org/2000/svg"><path d="M43.698 17.444c-4.667.033-7.598 3.09-7.54 7.865.054 4.504 3.05 7.438 7.607 7.453 4.722.015 7.723-2.978 7.712-7.692-.011-4.702-3.028-7.66-7.779-7.626M37.635 59.04c-.84.354-1.141.517-1.465.613-2.868.85-3.71 2.334-3.256 5.764.341 2.581 1.14 3.222 4.311 3.245 4.616.033 9.233.05 13.848-.015 2.438-.035 3.195-.726 3.601-2.857.56-2.942-.185-5.5-2.176-5.844-2.405-.415-2.56-1.787-2.543-3.665a696.65 696.65 0 0 0-.001-14.54c-.037-3.322-.758-4.013-4.12-4.069-3-.05-6.001-.052-9 .004-2.798.052-3.605.779-3.923 3.289-.422 3.333.306 4.91 2.857 5.611 1.178.325 1.864.812 1.866 2.06.003 3.446.001 6.893.001 10.404M43.8 87.547c-11.078 0-22.162-.206-33.233.082C4.428 87.79-.057 83.248 0 77.116.206 54.845.065 32.57.092 10.299.102 3.686 3.744.092 10.426.085 32.7.061 54.972.193 77.243 0c6.212-.053 10.438 4.665 10.388 10.335-.19 22.27-.2 44.545.004 66.816.053 5.975-4.303 10.644-10.602 10.478-11.07-.29-22.154-.082-33.233-.082" fill="#0099d9" fill-rule="evenodd"/></svg>