<svg xmlns="http://www.w3.org/2000/svg" width="101.72" height="92.77" viewBox="0 0 101.72 92.77"><defs><style>.cls-1{fill:none;stroke:#000;stroke-linecap:round;stroke-width:2px;}.cls-1,.cls-3{stroke-miterlimit:10;}.cls-2{fill:#007cb6;}.cls-3{font-size:27.77px;fill:#fff;stroke:#fff;font-family:AmazonEmberDisplay-Light, Amazon Ember Display;font-weight:300;}</style></defs><g id="Layer_2" data-name="Layer 2"><g id="Layer_1-2" data-name="Layer 1"><polygon class="cls-1" points="1 31.68 1 73.66 50.76 54.87 50.66 54.83 50.76 54.87 50.86 54.83 50.76 54.87 100.72 73.74 100.72 31.68 50.86 1.17 1 31.68"/><path class="cls-2" d="M80.44,12.77H22.07a6.42,6.42,0,0,0-6.41,6.4V51.22L41,58.55l9.74-3.68,9.6,3.62,26.48-7.64V19.17A6.42,6.42,0,0,0,80.44,12.77Z"/><text class="cls-3" transform="translate(43.24 45.14)">$</text><line class="cls-1" x1="60.36" y1="58.49" x2="100.72" y2="46.84"/><line class="cls-1" x1="40.84" y1="58.49" x2="1" y2="46.99"/><path class="cls-1" d="M1,73.66V85.37a6.42,6.42,0,0,0,6.4,6.4H94.32a6.42,6.42,0,0,0,6.4-6.4V73.74l-50-18.87Z"/></g></g></svg>