<?xml version="1.0" encoding="UTF-8"?>
<svg width="36px" height="29px" viewBox="0 0 36 29" version="1.1" xmlns="http://www.w3.org/2000/svg" xmlns:xlink="http://www.w3.org/1999/xlink">
    <title>AB_Icons_Triton_FullSet_V1_Business-Prime</title>
    <g id="Page-1" stroke="none" stroke-width="1" fill="none" fill-rule="evenodd">
        <g id="3-2" transform="translate(-712.000000, -459.000000)">
            <g id="AB_Icons_Triton_FullSet_V1_Business-Prime" transform="translate(713.000000, 460.000000)">
                <path d="M30.7692003,10.7712001 L30.7692003,27.5220003 L4.07880004,27.5220003 L4.07880004,10.7712001 L30.7692003,10.7712001 Z M7.11459973,17.5378534 C6.84999782,17.3844548 6.65376125,17.6550369 6.8739183,17.853189 C9.67601115,20.375727 13.3791089,21.8913108 17.4912175,21.8913108 C20.425316,21.8913108 23.8326561,20.9716554 26.1830653,19.2424619 C26.571847,18.9559805 26.2385844,18.5269945 25.8413862,18.6949674 C23.2065891,19.8092417 20.3430708,20.3481977 17.7382482,20.3481977 C13.8767141,20.3481977 10.1378832,19.2919263 7.11459973,17.5378534 Z M28.1640358,17.3659056 C27.9078504,17.05057 25.7034743,16.7785157 24.3580209,17.7205478 C24.151153,17.8654079 24.1867384,18.0653266 24.4163455,18.0379445 C25.1739752,17.9472597 26.8603694,17.7455745 27.1611473,18.1292181 C27.4285055,18.4704964 26.956425,19.7579089 26.6488976,20.5359758 L26.6488976,20.5359758 L26.5430538,20.8010326 C26.4571172,21.0144952 26.6415412,21.1007635 26.8355629,20.939268 C28.0962611,19.8875603 28.4221408,17.6840384 28.1640358,17.3659056 Z" id="Combined-Shape" fill="#FFFFFF" fill-rule="nonzero"></path>
                <line x1="0.316800003" y1="1.38600001" x2="4.07880004" y2="9.6228001" id="Path" stroke="#FFFFFF" stroke-width="0.792000008" stroke-linecap="round"></line>
                <line x1="34.5312003" y1="1.38600001" x2="30.7692003" y2="9.6228001" id="Path" stroke="#FFFFFF" stroke-width="0.792000008" stroke-linecap="round"></line>
                <g id="Group-5" transform="translate(5.940000, 0.198000)" stroke="#FFFFFF" stroke-linecap="round" stroke-width="0.792000008">
                    <line x1="1.98000002" y1="4.15800004" x2="1.98000002" y2="8.11800008" id="Path"></line>
                    <line x1="0" y1="6.13800006" x2="3.96000004" y2="6.13800006" id="Path"></line>
                    <line x1="3.84120004" y1="-1.4420465e-13" x2="3.84120004" y2="2.69280003" id="Path"></line>
                    <line x1="2.53440003" y1="1.34640001" x2="5.18760005" y2="1.34640001" id="Path"></line>
                    <line x1="7.32600007" y1="2.77200003" x2="7.32600007" y2="5.46480006" id="Path"></line>
                    <line x1="5.97960006" y1="4.11840004" x2="8.67240009" y2="4.11840004" id="Path"></line>
                </g>
            </g>
        </g>
    </g>
</svg>