<?xml version="1.0" encoding="UTF-8"?>
<svg width="36px" height="35px" viewBox="0 0 36 35" version="1.1" xmlns="http://www.w3.org/2000/svg" xmlns:xlink="http://www.w3.org/1999/xlink">
    <title>add-users-white</title>
    <g id="Page-1" stroke="none" stroke-width="1" fill="none" fill-rule="evenodd">
        <g id="3-2" transform="translate(-713.000000, -283.000000)">
            <g id="add-users-white" transform="translate(713.000000, 284.000000)">
                <path d="M25.3331997,14.7887998 L10.6667999,14.7887998 L10.7495999,14.0183998 C11.0987386,11.6062059 13.1759497,9.82266413 15.6131998,9.84239989 L17.9999998,9.88199989 L20.3867998,9.84239989 C22.8139141,9.86476523 24.8599718,11.6583177 25.1999997,14.0615998 L25.3331997,14.7887998 Z" id="Path" fill="#FFFFFF" fill-rule="nonzero"></path>
                <path d="M17.9747998,7.96320028 L17.9747998,7.96320028 C16.5153037,7.96394663 15.2953235,6.85317178 15.1595998,5.39999994 L14.9471998,3.43799996 C14.8644094,2.63079177 15.1285995,1.8264365 15.6738878,1.22552055 C16.2191761,0.624604593 16.9941681,0.283765444 17.8055998,0.287961004 L18.2303998,0.287961004 C19.0460663,0.288658708 19.8220853,0.639942896 20.3608133,1.25238427 C20.8995412,1.86482564 21.1489798,2.67931109 21.0455998,3.48839996 L20.8799998,5.39999994 C20.6891082,6.86083042 19.4480312,7.95580791 17.9747998,7.96320028 L17.9747998,7.96320028 Z" id="Path" stroke="#FFFFFF" stroke-width="0.719999992"></path>
                <path d="M35.8055996,33.5519996 L21.1355998,33.5519996 L21.2183998,32.7851996 C21.5659092,30.3715741 23.6435635,28.586114 26.0819997,28.6055997 L28.4687997,28.6487997 L30.8555996,28.6055997 C33.2854548,28.6244202 35.3355616,30.4188378 35.6759996,32.8247996 L35.8055996,33.5519996 Z" id="Path" fill="#FFFFFF" fill-rule="nonzero"></path>
                <path d="M28.3823997,26.6652493 L28.3823997,26.6652493 C26.9257654,26.6722405 25.7030467,25.5696102 25.5599997,24.1199997 L25.3439997,22.1579997 C25.2686033,21.3558971 25.5364977,20.5593931 26.0812912,19.9658838 C26.6260847,19.3723745 27.3967882,19.0374085 28.2023997,19.0439998 L28.6271997,19.0439998 C29.4432589,19.0434825 30.220015,19.3944259 30.7590023,20.0071621 C31.2979896,20.6198983 31.5469962,21.4350713 31.4423996,22.2443997 L31.2731996,24.1631997 C31.0729107,25.6038721 29.8369035,26.6736417 28.3823997,26.6652493 Z" id="Path" stroke="#FFFFFF" stroke-width="0.719999992"></path>
                <path d="M14.8643998,33.5519996 L0.194399998,33.5519996 L0.280799997,32.7851996 C0.628309448,30.3715741 2.70596374,28.586114 5.14439994,28.6055997 L7.53119991,28.6487997 L9.91799989,28.6055997 C12.347855,28.6244202 14.3979619,30.4188378 14.7383998,32.8247996 L14.8643998,33.5519996 Z" id="Path" fill="#FFFFFF" fill-rule="nonzero"></path>
                <path d="M7.44479991,26.6868291 L7.44479991,26.6868291 C5.98404572,26.6873745 4.76357985,25.5745968 4.62959995,24.1199997 L4.41719995,22.1579997 C4.33221884,21.3496193 4.59541933,20.5432895 5.14095904,19.9407224 C5.68649876,19.3381552 6.4627771,18.9963452 7.27559992,19.0007568 L7.70039991,19.0007568 C8.51606639,19.0014585 9.29208545,19.3527427 9.83081341,19.965184 C10.3695414,20.5776254 10.61898,21.3921109 10.5155999,22.2011997 L10.3463999,24.1199997 C10.172504,25.5888971 8.92394013,26.693396 7.44479991,26.6868291 L7.44479991,26.6868291 Z" id="Path" stroke="#FFFFFF" stroke-width="0.719999992"></path>
                <line x1="17.9567998" y1="17.6435998" x2="17.9567998" y2="20.8439998" id="Path" stroke="#FFFFFF" stroke-width="0.719999992" stroke-linecap="round"></line>
                <line x1="17.9999998" y1="20.8439998" x2="15.7391998" y2="23.0615997" id="Path" stroke="#FFFFFF" stroke-width="0.719999992" stroke-linecap="round"></line>
                <line x1="20.2607998" y1="23.0615997" x2="17.9999998" y2="20.8439998" id="Path" stroke="#FFFFFF" stroke-width="0.719999992" stroke-linecap="round"></line>
            </g>
        </g>
    </g>
</svg>