<?xml version="1.0" encoding="UTF-8"?>
<svg width="37px" height="34px" viewBox="0 0 37 34" version="1.1" xmlns="http://www.w3.org/2000/svg" xmlns:xlink="http://www.w3.org/1999/xlink">
    <title>AB_Icons_Triton_FullSet_V1_Quantity-discounts</title>
    <g id="Page-1" stroke="none" stroke-width="1" fill="none" fill-rule="evenodd">
        <g id="3-2" transform="translate(-712.000000, -268.000000)">
            <g id="AB_Icons_Triton_FullSet_V1_Quantity-discounts" transform="translate(712.000000, 269.000000)">
                <path d="M13.5402983,2.40716414 C13.8788057,2.25671638 14.2549251,2.25671638 14.5934326,2.40716414 L14.5934326,2.40716414 L34.6029845,11.1331341 C35.3176113,11.4340297 35.6561188,12.2614923 35.3552233,12.9761192 L35.3552233,12.9761192 L27.7576115,30.4280592 C27.456716,31.142686 26.6292533,31.4435816 25.9146264,31.142686 L25.9146264,31.142686 L5.90507453,22.416716 C5.56656707,22.2662683 5.30328349,21.9653728 5.15283573,21.6268653 L5.15283573,21.6268653 L0.225671638,9.1020894 C-0.0752238793,8.38746254 0.300895517,7.59761181 1.01552237,7.29671629 L1.01552237,7.29671629 Z M22.6423877,19.2197012 C21.2714026,19.2197012 20.1599997,20.3311041 20.1599997,21.7020892 C20.1599997,23.0730742 21.2714026,24.1844772 22.6423877,24.1844772 C24.0133727,24.1844772 25.1247757,23.0730742 25.1247757,21.7020892 C25.1247757,20.3311041 24.0133727,19.2197012 22.6423877,19.2197012 Z M22.6423877,19.97194 C23.5979227,19.97194 24.3725369,20.7465542 24.3725369,21.7020892 C24.3725369,22.6576242 23.5979227,23.4322384 22.6423877,23.4322384 C21.6868526,23.4322384 20.9122384,22.6576242 20.9122384,21.7020892 C20.9122384,20.7465542 21.6868526,19.97194 22.6423877,19.97194 Z M27.2426444,14.1927063 C27.1667369,13.9993472 26.9484532,13.9041339 26.7550941,13.9800415 L26.7550941,13.9800415 L12.5753929,19.5466085 L12.5354876,19.5649927 C12.369305,19.6535723 12.2922425,19.8546111 12.3627281,20.0341588 C12.4386356,20.2275179 12.6569193,20.3227312 12.8502784,20.2468236 L12.8502784,20.2468236 L27.0299796,14.6802566 L27.0698849,14.6618724 C27.2360675,14.5732928 27.31313,14.372254 27.2426444,14.1927063 Z M11.5468655,11.2835819 C11.1707461,9.2901491 8.95164164,8.3498506 7.25910435,9.40298491 C6.31880586,10.0047759 5.79223871,11.1707461 6.01791035,12.2614923 C6.39402974,14.2549251 8.61313418,15.1952236 10.3056715,14.1420893 C11.2835819,13.5402983 11.7725371,12.4119401 11.5468655,11.2835819 Z M17.8656713,9.13970134 C16.4946863,9.13970134 15.3832833,10.2511043 15.3832833,11.6220894 C15.3832833,12.9930744 16.4946863,14.1044774 17.8656713,14.1044774 C19.2366564,14.1044774 20.3480594,12.9930744 20.3480594,11.6220894 C20.3480594,10.2511043 19.2366564,9.13970134 17.8656713,9.13970134 Z M17.8656713,9.89194013 C18.8212064,9.89194013 19.5958206,10.6665543 19.5958206,11.6220894 C19.5958206,12.5776244 18.8212064,13.3522386 17.8656713,13.3522386 C16.9101363,13.3522386 16.1355221,12.5776244 16.1355221,11.6220894 C16.1355221,10.6665543 16.9101363,9.89194013 17.8656713,9.89194013 Z" id="Combined-Shape" fill="#FFFFFF" fill-rule="nonzero"></path>
                <line x1="35.9946263" y1="8.50029836" x2="17.2638803" y2="0.338507457" id="Path" stroke="#FFFFFF" stroke-width="0.752238793" stroke-linecap="round"></line>
            </g>
        </g>
    </g>
</svg>