<svg xmlns="http://www.w3.org/2000/svg" viewBox="0 0 110 110"><defs><style>.cls-1{fill:#007cb6;}.cls-2,.cls-4,.cls-5{fill:none;stroke-linecap:round;stroke-width:2px;}.cls-2,.cls-4{stroke:#000;}.cls-2{stroke-miterlimit:10;}.cls-3{fill:#fff;}.cls-4,.cls-5{stroke-linejoin:round;}.cls-5{stroke:#fff;}</style></defs><title>price-comparison-blue</title><g id="Row_2" data-name="Row 2"><path d="M81.24,40.15a3.77,3.77,0,1,1-3.77-3.77A3.72,3.72,0,0,1,81.24,40.15Z"/><path class="cls-1" d="M60.29,23.09,36.41,6.38a5,5,0,0,0-5.65,0l-24,16.71a2,2,0,0,0-.82,1.53v56a8.68,8.68,0,0,0,8.71,8.7H52.29A8.68,8.68,0,0,0,61,80.62v-56A1.7,1.7,0,0,0,60.29,23.09Z"/><path class="cls-2" d="M51,94.26V96a8.51,8.51,0,0,0,8.47,8.47H95.59A8.51,8.51,0,0,0,104.06,96V42.15a2,2,0,0,0-.82-1.53l-23.06-16a5,5,0,0,0-5.42,0l-8.82,6.23"/><path class="cls-3" d="M37.35,23.56a3.77,3.77,0,1,1-3.76-3.77A3.79,3.79,0,0,1,37.35,23.56Z"/><polyline class="cls-4" points="73.12 63.87 66.06 70.81 66.06 70.81 73.12 77.75"/><line class="cls-4" x1="66.06" y1="70.81" x2="88.88" y2="70.81"/><polyline class="cls-5" points="37.94 61.32 45 54.27 45 54.27 37.94 47.32"/><line class="cls-5" x1="45" y1="54.27" x2="22.18" y2="54.27"/></g></svg>