<svg xmlns="http://www.w3.org/2000/svg" viewBox="0 0 110 110"><defs><style>.cls-1,.cls-3{fill:none;stroke:#000;stroke-miterlimit:10;stroke-width:2px;}.cls-1{stroke-linecap:round;}.cls-2{fill:#ffa724;}</style></defs><title>purchasing-system-orange</title><g id="Row_5" data-name="Row 5"><path class="cls-1" d="M50.85,12.52l-5-2.34L40,16l2.34,5a19.85,19.85,0,0,0-1.87,4.57L35.16,27.5v4.1H51.08a10.18,10.18,0,1,1,20.36,0H87.36V27.5l-5.27-1.87a19.85,19.85,0,0,0-1.87-4.57l2.34-5-5.85-5.85-5,2.34a19.85,19.85,0,0,0-4.57-1.87L65.24,5.38H57.05l-1.87,5.27A19.15,19.15,0,0,0,50.85,12.52Z"/><polygon class="cls-2" points="19.95 29.25 101.17 29.25 89.46 67.99 29.66 67.99 19.95 29.25"/><circle class="cls-3" cx="39.85" cy="96.89" r="7.72"/><circle class="cls-3" cx="82.32" cy="96.89" r="7.72"/><path class="cls-1" d="M8.83,15.8c7.73,0,7.73,3.86,11.59,15.44l11.7,46.35c.35,1.75,1.29,3.86,3.16,3.86H90.17"/></g></svg>