<?xml version="1.0" encoding="utf-8"?>
<!-- Generator: Adobe Illustrator 24.2.1, SVG Export Plug-In . SVG Version: 6.00 Build 0)  -->
<svg version="1.1" id="Layer_1" xmlns="http://www.w3.org/2000/svg" xmlns:xlink="http://www.w3.org/1999/xlink" x="0px" y="0px"
	 viewBox="0 0 110 110" style="enable-background:new 0 0 110 110;" xml:space="preserve">
<style type="text/css">
	.st0{fill:none;stroke:#FFFFFF;stroke-width:2;stroke-linecap:square;stroke-miterlimit:10;}
	.st1{fill:#FFFFFF;}
	.st2{fill:#FF9900;stroke:#000000;stroke-width:2;stroke-linecap:square;stroke-miterlimit:10;}
	.st3{fill:#FFFFFF;stroke:#000000;stroke-width:2;stroke-miterlimit:10;}
	.st4{fill:#007CB6;stroke:#000000;stroke-width:2;stroke-linecap:square;stroke-miterlimit:10;}
</style>
<g>
	<path class="st2" d="M50.1,4.1H11.9c-4.3,0-7.8,3.5-7.8,7.8v38.2h45.9V4.1z"/>
	<path class="st2" d="M96,50.1V11.9c0-4.3-3.5-7.8-7.8-7.8H50.1v45.9H96z"/>
	<path class="st2" d="M4.1,50.1v38.2c0,4.3,3.5,7.8,7.8,7.8h38.2V50.1H4.1z"/>
	<circle class="st3" cx="73" cy="73" r="32.8"/>
	<g>
		<path class="st1" d="M72,35.8c-0.5,0-0.8-0.3-0.8-0.8v-6.2h-5.8c-0.5,0-0.8-0.3-0.8-0.8v-1.8c0-0.5,0.3-0.8,0.8-0.8h5.8v-6.2
			c0-0.5,0.3-0.8,0.8-0.8h2.2c0.5,0,0.8,0.3,0.8,0.8v6.2h5.8c0.5,0,0.8,0.3,0.8,0.8V28c0,0.5-0.3,0.8-0.8,0.8h-5.8V35
			c0,0.5-0.3,0.8-0.8,0.8H72z"/>
	</g>
	<g>
		<path d="M65.3,70.6c-0.5,0-0.8-0.3-0.8-0.8V68c0-0.5,0.3-0.8,0.8-0.8h15.4c0.5,0,0.8,0.3,0.8,0.8v1.8c0,0.5-0.3,0.8-0.8,0.8H65.3z
			 M65.3,78.9c-0.5,0-0.8-0.3-0.8-0.8v-1.8c0-0.5,0.3-0.8,0.8-0.8h15.4c0.5,0,0.8,0.3,0.8,0.8v1.8c0,0.5-0.3,0.8-0.8,0.8H65.3z"/>
	</g>
	<g>
		<path class="st1" d="M32.5,80c-0.4,0.4-0.8,0.4-1.2,0L27,75.6l-4.1,4.1c-0.4,0.4-0.8,0.4-1.2,0l-1.3-1.3c-0.4-0.4-0.4-0.8,0-1.2
			l4.1-4.1l-4.4-4.4c-0.4-0.4-0.4-0.8,0-1.2l1.5-1.5c0.4-0.4,0.8-0.4,1.2,0l4.4,4.4l4.1-4.1c0.4-0.4,0.8-0.4,1.2,0l1.3,1.3
			c0.4,0.4,0.4,0.8,0,1.2l-4.1,4.1l4.4,4.4c0.4,0.4,0.4,0.8,0,1.2L32.5,80z"/>
	</g>
	<g>
		<path class="st1" d="M18.4,28.9c-1.8,0-3.2-0.6-4.2-1.9c-1-1.2-1.5-3-1.5-5.2c0-2.2,0.5-3.9,1.5-5.2c1-1.2,2.4-1.9,4.2-1.9
			c1.8,0,3.2,0.6,4.2,1.9c1,1.2,1.5,3,1.5,5.2c0,2.2-0.5,3.9-1.5,5.2C21.6,28.3,20.2,28.9,18.4,28.9z M18.4,26.5
			c0.9,0,1.5-0.4,2-1.1c0.4-0.7,0.6-1.9,0.6-3.5c0-1.6-0.2-2.7-0.6-3.5c-0.4-0.7-1.1-1.1-2-1.1c-0.9,0-1.5,0.4-2,1.1
			c-0.4,0.7-0.6,1.9-0.6,3.5c0,1.6,0.2,2.7,0.6,3.5C16.8,26.1,17.5,26.5,18.4,26.5z M20.9,38.9c-0.3,0-0.5-0.1-0.5-0.4
			c0-0.2,0.1-0.5,0.3-1l10.5-21.8c0.1-0.3,0.3-0.5,0.4-0.5c0.1-0.1,0.3-0.1,0.5-0.1H34c0.3,0,0.5,0.1,0.5,0.4c0,0.2-0.1,0.5-0.3,1
			L23.7,38.3c-0.1,0.3-0.3,0.5-0.4,0.5c-0.1,0.1-0.3,0.1-0.5,0.1H20.9z M36.5,39.2c-1.8,0-3.2-0.6-4.2-1.9c-1-1.2-1.5-3-1.5-5.2
			s0.5-3.9,1.5-5.2c1-1.2,2.4-1.9,4.2-1.9c1.8,0,3.2,0.6,4.2,1.9c1,1.2,1.5,3,1.5,5.2s-0.5,3.9-1.5,5.2
			C39.8,38.6,38.4,39.2,36.5,39.2z M36.5,36.8c0.9,0,1.5-0.4,2-1.1s0.6-1.9,0.6-3.5c0-1.6-0.2-2.7-0.6-3.5c-0.4-0.7-1.1-1.1-2-1.1
			s-1.5,0.4-2,1.1c-0.4,0.7-0.6,1.9-0.6,3.5c0,1.6,0.2,2.7,0.6,3.5S35.7,36.8,36.5,36.8z"/>
	</g>
</g>
</svg>
